# xmcd
#
# Track frame offsets:
#	150
#	14136
#	28206
#	43276
#	56942
#	71242
#	85493
#	100311
#	117866
#	135193
#	149700
#	162721
#	176948
#	191190
#	207003
#	221644
#	239006
#	252393
#	269128
#	283873
#	297696
#	313227
#
# Disc length: 4393 seconds
#
# Revision: 1
# Processed by: cddbd v1.5.2PL0 Copyright (c) Steve Scherf et al.
# Submitted via: dBpowerAMP V4.0
#
DISCID=8b112716
DTITLE=Various Artist - ERG Nu Country Traxx Vol. 246 Can
DYEAR=2014
DGENRE=Country
TTITLE0=Florida Georgia Line - Sun Daze [Radio Edit]
TTITLE1=Luke Bryan - I See You
TTITLE2=Toby Keith - Drunk Americans
TTITLE3=Dallas Smith - Wastin' Gas
TTITLE4=Gloriana - Trouble
TTITLE5=Billy Currington - Don't It
TTITLE6=Jason Aldean - Just Gettin' Started
TTITLE7=Swon Brothers, The - Pray For You
TTITLE8=Rascal Flatts - Riot
TTITLE9=Cole Swindell - Ain't Worth The Whiskey
TTITLE10=Josh Abbott Band - Hangin' Around
TTITLE11=Alee - Only The Strong Survive
TTITLE12=Dustin Lynch - Hell Of A Night
TTITLE13=Chase Rice - Gonna Wanna Tonight
TTITLE14=Blackjack Billy - Sugar Cane
TTITLE15=Justin Moore - This Kind Of Town
TTITLE16=Dylan Scott - Lay It On Me
TTITLE17=Brantley Gilbert - One Hell Of An Amen
TTITLE18=Hayley and Michaels - Just Another Love Song
TTITLE19=Terri Clark - Longer
TTITLE20=Hey Romeo - Won't Be Over You
TTITLE21=Darius Rucker - What God Wants For Christmas
EXTD=
EXTT0=
EXTT1=
EXTT2=
EXTT3=
EXTT4=
EXTT5=
EXTT6=
EXTT7=
EXTT8=
EXTT9=
EXTT10=
EXTT11=
EXTT12=
EXTT13=
EXTT14=
EXTT15=
EXTT16=
EXTT17=
EXTT18=
EXTT19=
EXTT20=
EXTT21=
PLAYORDER=
